<svg width="151" height="158" viewBox="0 0 151 158" fill="none" xmlns="http://www.w3.org/2000/svg">
<path d="M0.7 79C0.7 63.8933 4.07333 50.4 10.82 38.52C17.7133 26.4933 27.0267 17.18 38.76 10.58C50.64 3.83333 63.9133 0.459996 78.58 0.459996C95.74 0.459996 110.773 4.86 123.68 13.66C136.587 22.46 145.607 34.6333 150.74 50.18H115.32C111.8 42.8467 106.813 37.3467 100.36 33.68C94.0533 30.0133 86.72 28.18 78.36 28.18C69.4133 28.18 61.42 30.3067 54.38 34.56C47.4867 38.6667 42.06 44.5333 38.1 52.16C34.2867 59.7867 32.38 68.7333 32.38 79C32.38 89.12 34.2867 98.0667 38.1 105.84C42.06 113.467 47.4867 119.407 54.38 123.66C61.42 127.767 69.4133 129.82 78.36 129.82C86.72 129.82 94.0533 127.987 100.36 124.32C106.813 120.507 111.8 114.933 115.32 107.6H150.74C145.607 123.293 136.587 135.54 123.68 144.34C110.92 152.993 95.8867 157.32 78.58 157.32C63.9133 157.32 50.64 154.02 38.76 147.42C27.0267 140.673 17.7133 131.36 10.82 119.48C4.07333 107.6 0.7 94.1067 0.7 79Z" fill="#18B058"/>
</svg>
