<svg width="209" height="37" viewBox="0 0 209 37" fill="none" xmlns="http://www.w3.org/2000/svg">
<path d="M15.5359 14.04C16.9999 14.352 18.1759 15.084 19.0639 16.236C19.9519 17.364 20.3959 18.66 20.3959 20.124C20.3959 22.236 19.6519 23.916 18.1639 25.164C16.6999 26.388 14.6479 27 12.0079 27H0.235906V1.728H11.6119C14.1799 1.728 16.1839 2.316 17.6239 3.492C19.0879 4.668 19.8199 6.264 19.8199 8.28C19.8199 9.768 19.4239 11.004 18.6319 11.988C17.8639 12.972 16.8319 13.656 15.5359 14.04ZM6.39191 11.952H10.4239C11.4319 11.952 12.1999 11.736 12.7279 11.304C13.2799 10.848 13.5559 10.188 13.5559 9.324C13.5559 8.46 13.2799 7.8 12.7279 7.344C12.1999 6.888 11.4319 6.66 10.4239 6.66H6.39191V11.952ZM10.9279 22.032C11.9599 22.032 12.7519 21.804 13.3039 21.348C13.8799 20.868 14.1679 20.184 14.1679 19.296C14.1679 18.408 13.8679 17.712 13.2679 17.208C12.6919 16.704 11.8879 16.452 10.8559 16.452H6.39191V22.032H10.9279ZM30.1224 0.36V27H23.9664V0.36H30.1224ZM43.7276 27.288C41.7596 27.288 39.9836 26.868 38.3996 26.028C36.8396 25.188 35.6036 23.988 34.6916 22.428C33.8036 20.868 33.3596 19.044 33.3596 16.956C33.3596 14.892 33.8156 13.08 34.7276 11.52C35.6396 9.936 36.8876 8.724 38.4716 7.884C40.0556 7.044 41.8316 6.624 43.7996 6.624C45.7676 6.624 47.5436 7.044 49.1276 7.884C50.7116 8.724 51.9596 9.936 52.8716 11.52C53.7836 13.08 54.2396 14.892 54.2396 16.956C54.2396 19.02 53.7716 20.844 52.8356 22.428C51.9236 23.988 50.6636 25.188 49.0556 26.028C47.4716 26.868 45.6956 27.288 43.7276 27.288ZM43.7276 21.96C44.9036 21.96 45.8996 21.528 46.7156 20.664C47.5556 19.8 47.9756 18.564 47.9756 16.956C47.9756 15.348 47.5676 14.112 46.7516 13.248C45.9596 12.384 44.9756 11.952 43.7996 11.952C42.5996 11.952 41.6036 12.384 40.8116 13.248C40.0196 14.088 39.6236 15.324 39.6236 16.956C39.6236 18.564 40.0076 19.8 40.7756 20.664C41.5676 21.528 42.5516 21.96 43.7276 21.96ZM65.1374 6.624C66.5534 6.624 67.7894 6.912 68.8454 7.488C69.9254 8.064 70.7534 8.82 71.3294 9.756V6.912H77.4854V26.964C77.4854 28.812 77.1134 30.48 76.3694 31.968C75.6494 33.48 74.5334 34.68 73.0214 35.568C71.5334 36.456 69.6734 36.9 67.4414 36.9C64.4654 36.9 62.0534 36.192 60.2054 34.776C58.3574 33.384 57.3014 31.488 57.0374 29.088H63.1214C63.3134 29.856 63.7694 30.456 64.4894 30.888C65.2094 31.344 66.0974 31.572 67.1534 31.572C68.4254 31.572 69.4334 31.2 70.1774 30.456C70.9454 29.736 71.3294 28.572 71.3294 26.964V24.12C70.7294 25.056 69.9014 25.824 68.8454 26.424C67.7894 27 66.5534 27.288 65.1374 27.288C63.4814 27.288 61.9814 26.868 60.6374 26.028C59.2934 25.164 58.2254 23.952 57.4334 22.392C56.6654 20.808 56.2814 18.984 56.2814 16.92C56.2814 14.856 56.6654 13.044 57.4334 11.484C58.2254 9.924 59.2934 8.724 60.6374 7.884C61.9814 7.044 63.4814 6.624 65.1374 6.624ZM71.3294 16.956C71.3294 15.42 70.8974 14.208 70.0334 13.32C69.1934 12.432 68.1614 11.988 66.9374 11.988C65.7134 11.988 64.6694 12.432 63.8054 13.32C62.9654 14.184 62.5454 15.384 62.5454 16.92C62.5454 18.456 62.9654 19.68 63.8054 20.592C64.6694 21.48 65.7134 21.924 66.9374 21.924C68.1614 21.924 69.1934 21.48 70.0334 20.592C70.8974 19.704 71.3294 18.492 71.3294 16.956ZM104.547 27H98.391L88.095 11.412V27H81.939V1.728H88.095L98.391 17.388V1.728H104.547V27ZM107.785 16.92C107.785 14.856 108.169 13.044 108.937 11.484C109.729 9.924 110.797 8.724 112.141 7.884C113.485 7.044 114.985 6.624 116.641 6.624C118.057 6.624 119.293 6.912 120.349 7.488C121.429 8.064 122.257 8.82 122.833 9.756V6.912H128.989V27H122.833V24.156C122.233 25.092 121.393 25.848 120.313 26.424C119.257 27 118.021 27.288 116.605 27.288C114.973 27.288 113.485 26.868 112.141 26.028C110.797 25.164 109.729 23.952 108.937 22.392C108.169 20.808 107.785 18.984 107.785 16.92ZM122.833 16.956C122.833 15.42 122.401 14.208 121.537 13.32C120.697 12.432 119.665 11.988 118.441 11.988C117.217 11.988 116.173 12.432 115.309 13.32C114.469 14.184 114.049 15.384 114.049 16.92C114.049 18.456 114.469 19.68 115.309 20.592C116.173 21.48 117.217 21.924 118.441 21.924C119.665 21.924 120.697 21.48 121.537 20.592C122.401 19.704 122.833 18.492 122.833 16.956ZM159.075 6.696C161.571 6.696 163.551 7.452 165.015 8.964C166.503 10.476 167.247 12.576 167.247 15.264V27H161.127V16.092C161.127 14.796 160.779 13.8 160.083 13.104C159.411 12.384 158.475 12.024 157.275 12.024C156.075 12.024 155.127 12.384 154.431 13.104C153.759 13.8 153.423 14.796 153.423 16.092V27H147.303V16.092C147.303 14.796 146.955 13.8 146.259 13.104C145.587 12.384 144.651 12.024 143.451 12.024C142.251 12.024 141.303 12.384 140.607 13.104C139.935 13.8 139.599 14.796 139.599 16.092V27H133.443V6.912H139.599V9.432C140.223 8.592 141.039 7.932 142.047 7.452C143.055 6.948 144.195 6.696 145.467 6.696C146.979 6.696 148.323 7.02 149.499 7.668C150.699 8.316 151.635 9.24 152.307 10.44C153.003 9.336 153.951 8.436 155.151 7.74C156.351 7.044 157.659 6.696 159.075 6.696ZM190.488 16.632C190.488 17.208 190.452 17.808 190.38 18.432H176.448C176.544 19.68 176.94 20.64 177.636 21.312C178.356 21.96 179.232 22.284 180.264 22.284C181.8 22.284 182.868 21.636 183.468 20.34H190.02C189.684 21.66 189.072 22.848 188.184 23.904C187.32 24.96 186.228 25.788 184.908 26.388C183.588 26.988 182.112 27.288 180.48 27.288C178.512 27.288 176.76 26.868 175.224 26.028C173.688 25.188 172.488 23.988 171.624 22.428C170.76 20.868 170.328 19.044 170.328 16.956C170.328 14.868 170.748 13.044 171.588 11.484C172.452 9.924 173.652 8.724 175.188 7.884C176.724 7.044 178.488 6.624 180.48 6.624C182.424 6.624 184.152 7.032 185.664 7.848C187.176 8.664 188.352 9.828 189.192 11.34C190.056 12.852 190.488 14.616 190.488 16.632ZM184.188 15.012C184.188 13.956 183.828 13.116 183.108 12.492C182.388 11.868 181.488 11.556 180.408 11.556C179.376 11.556 178.5 11.856 177.78 12.456C177.084 13.056 176.652 13.908 176.484 15.012H184.188ZM200.756 1.332C202.268 1.332 203.612 1.668 204.788 2.34C205.988 2.988 206.912 3.9 207.56 5.076C208.232 6.252 208.568 7.596 208.568 9.108C208.568 10.596 208.232 11.94 207.56 13.14C206.912 14.316 205.988 15.24 204.788 15.912C203.612 16.56 202.268 16.884 200.756 16.884C199.244 16.884 197.888 16.56 196.688 15.912C195.512 15.24 194.588 14.316 193.916 13.14C193.244 11.94 192.908 10.596 192.908 9.108C192.908 7.596 193.244 6.252 193.916 5.076C194.588 3.9 195.512 2.988 196.688 2.34C197.888 1.668 199.244 1.332 200.756 1.332ZM200.756 14.868C202.484 14.868 203.864 14.34 204.896 13.284C205.928 12.228 206.444 10.836 206.444 9.108C206.444 7.38 205.928 5.988 204.896 4.932C203.864 3.876 202.484 3.348 200.756 3.348C199.028 3.348 197.648 3.876 196.616 4.932C195.584 5.988 195.068 7.38 195.068 9.108C195.068 10.836 195.584 12.228 196.616 13.284C197.648 14.34 199.028 14.868 200.756 14.868ZM204.248 7.668C204.248 8.172 204.116 8.616 203.852 9C203.612 9.384 203.276 9.672 202.844 9.864L204.68 12.816H201.728L200.288 10.152H200.072V12.816H197.48V5.184H201.476C202.316 5.184 202.988 5.412 203.492 5.868C203.996 6.324 204.248 6.924 204.248 7.668ZM200.036 8.388H201.044C201.428 8.388 201.62 8.208 201.62 7.848C201.62 7.512 201.428 7.344 201.044 7.344H200.036V8.388Z" fill="black"/>
</svg>
