<svg width="24" height="11" viewBox="0 0 24 11" fill="none" xmlns="http://www.w3.org/2000/svg">
<g clip-path="url(#clip0)">
<path d="M23.25 4.6416H0.75C0.335786 4.6416 0 4.9368 0 5.30094C0 5.66509 0.335786 5.96028 0.75 5.96028H23.25C23.6642 5.96028 24 5.66509 24 5.30094C24 4.9368 23.6642 4.6416 23.25 4.6416Z" fill="black"/>
<path d="M23.25 0H8.01001C7.5958 0 7.26001 0.295197 7.26001 0.659341C7.26001 1.02348 7.5958 1.31868 8.01001 1.31868H23.25C23.6642 1.31868 24 1.02348 24 0.659341C24 0.295197 23.6642 0 23.25 0Z" fill="black"/>
<path d="M23.25 9.23096H0.75C0.335786 9.23096 0 9.52615 0 9.8903C0 10.2544 0.335786 10.5496 0.75 10.5496H23.25C23.6642 10.5496 24 10.2544 24 9.8903C24 9.52615 23.6642 9.23096 23.25 9.23096Z" fill="black"/>
</g>
<defs>
<clipPath id="clip0">
<rect width="24" height="10.5495" fill="white"/>
</clipPath>
</defs>
</svg>
